<svg version="1.1" id="Layer_1" xmlns="http://www.w3.org/2000/svg" xmlns:xlink="http://www.w3.org/1999/xlink" x="0px" y="0px"
	 width="100%" viewBox="0 0 750 750" enable-background="new 0 0 750 750" xml:space="preserve">
<path fill="#021027" opacity="1.000000" stroke="none" 
	d="
M446.000000,751.000000 
	C297.333344,751.000000 149.166672,751.000000 1.000000,751.000000 
	C1.000000,501.000000 1.000000,251.000000 1.000000,1.000000 
	C251.000000,1.000000 501.000000,1.000000 751.000000,1.000000 
	C751.000000,251.000000 751.000000,501.000000 751.000000,751.000000 
	C649.500000,751.000000 548.000000,751.000000 446.000000,751.000000 
M395.499695,707.583496 
	C470.993408,707.583069 546.487305,707.498718 621.980713,707.639160 
	C641.775269,707.675964 659.976196,703.109985 675.715332,690.775208 
	C698.040894,673.278687 707.668701,649.977905 707.644287,621.855408 
	C707.501831,458.036774 707.575928,294.217957 707.564941,130.399200 
	C707.564697,127.401070 707.509338,124.397285 707.325012,121.405678 
	C704.623230,77.555489 670.192261,44.628273 626.228699,44.592918 
	C459.410339,44.458786 292.591797,44.538990 125.773323,44.538712 
	C111.838577,44.538689 98.578827,47.529259 86.529907,54.557892 
	C58.711323,70.785637 44.574890,95.165268 44.556911,127.400208 
	C44.487110,252.555695 44.527565,377.711243 44.527538,502.866791 
	C44.527531,543.696472 44.542568,584.526184 44.524891,625.355896 
	C44.514866,648.512146 52.542458,668.378174 69.116798,684.566345 
	C86.013191,701.069092 106.639641,707.691589 130.023331,707.648193 
	C218.181839,707.484619 306.340851,707.583069 395.499695,707.583496 
z"/>
<path fill="#005DE0" opacity="1.000000" stroke="none" 
	d="
M394.999695,707.583496 
	C306.340851,707.583069 218.181839,707.484619 130.023331,707.648193 
	C106.639641,707.691589 86.013191,701.069092 69.116798,684.566345 
	C52.542458,668.378174 44.514866,648.512146 44.524891,625.355896 
	C44.542568,584.526184 44.527531,543.696472 44.527538,502.866791 
	C44.527565,377.711243 44.487110,252.555695 44.556911,127.400208 
	C44.574890,95.165268 58.711323,70.785637 86.529907,54.557892 
	C98.578827,47.529259 111.838577,44.538689 125.773323,44.538712 
	C292.591797,44.538990 459.410339,44.458786 626.228699,44.592918 
	C670.192261,44.628273 704.623230,77.555489 707.325012,121.405678 
	C707.509338,124.397285 707.564697,127.401070 707.564941,130.399200 
	C707.575928,294.217957 707.501831,458.036774 707.644287,621.855408 
	C707.668701,649.977905 698.040894,673.278687 675.715332,690.775208 
	C659.976196,703.109985 641.775269,707.675964 621.980713,707.639160 
	C546.487305,707.498718 470.993408,707.583069 394.999695,707.583496 
M318.106049,424.602417 
	C294.758270,466.760956 271.410492,508.919525 247.563782,551.978943 
	C250.729797,552.120117 252.514008,552.266846 254.298370,552.268799 
	C272.131165,552.288208 289.964050,552.256226 307.796783,552.292358 
	C335.466766,552.348450 355.487640,539.397583 368.608856,515.663696 
	C404.549316,450.654053 440.224121,385.497467 475.976685,320.383942 
	C476.966614,318.581116 477.646362,316.607971 478.931335,313.656281 
	C475.956329,313.656281 474.028839,313.650848 472.101379,313.657043 
	C429.436890,313.794312 386.772156,313.881226 344.108124,314.107117 
	C333.291534,314.164368 322.247986,313.369904 311.710266,315.235291 
	C290.627380,318.967438 274.455170,330.843414 263.686279,349.471527 
	C255.102249,364.320190 246.934357,379.409637 238.619934,394.413422 
	C237.944031,395.633118 237.563400,397.016418 236.548782,399.577850 
	C268.601593,399.577850 299.625275,399.577850 331.948456,399.577850 
	C326.943970,408.597534 322.686859,416.270203 318.106049,424.602417 
M418.499817,284.715851 
	C437.987274,284.559479 457.474640,284.382172 476.962280,284.256958 
	C484.793243,284.206665 492.117340,281.909088 497.489136,276.482391 
	C504.592285,269.306732 511.684723,261.755768 516.992676,253.249680 
	C525.878845,239.009583 533.401245,223.914200 541.394592,209.123108 
	C545.136963,202.198074 543.603577,199.759491 535.743164,199.760086 
	C456.114288,199.766190 376.485352,199.761200 296.856567,199.844604 
	C292.235748,199.849442 287.505981,200.092514 283.014984,201.080017 
	C266.646088,204.679276 251.312668,211.391159 241.975601,225.601181 
	C229.864624,244.032822 219.719437,263.756195 208.742325,282.931732 
	C208.688354,283.026001 208.840027,283.238007 209.363678,284.715851 
	C278.427460,284.715851 347.963593,284.715851 418.499817,284.715851 
z"/>
<path fill="#021027" opacity="1.000000" stroke="none" 
	d="
M318.267914,424.272644 
	C322.686859,416.270203 326.943970,408.597534 331.948456,399.577850 
	C299.625275,399.577850 268.601593,399.577850 236.548782,399.577850 
	C237.563400,397.016418 237.944031,395.633118 238.619934,394.413422 
	C246.934357,379.409637 255.102249,364.320190 263.686279,349.471527 
	C274.455170,330.843414 290.627380,318.967438 311.710266,315.235291 
	C322.247986,313.369904 333.291534,314.164368 344.108124,314.107117 
	C386.772156,313.881226 429.436890,313.794312 472.101379,313.657043 
	C474.028839,313.650848 475.956329,313.656281 478.931335,313.656281 
	C477.646362,316.607971 476.966614,318.581116 475.976685,320.383942 
	C440.224121,385.497467 404.549316,450.654053 368.608856,515.663696 
	C355.487640,539.397583 335.466766,552.348450 307.796783,552.292358 
	C289.964050,552.256226 272.131165,552.288208 254.298370,552.268799 
	C252.514008,552.266846 250.729797,552.120117 247.563782,551.978943 
	C271.410492,508.919525 294.758270,466.760956 318.267914,424.272644 
z"/>
<path fill="#021027" opacity="1.000000" stroke="none" 
	d="
M417.999786,284.715851 
	C347.963593,284.715851 278.427460,284.715851 209.363678,284.715851 
	C208.840027,283.238007 208.688354,283.026001 208.742325,282.931732 
	C219.719437,263.756195 229.864624,244.032822 241.975601,225.601181 
	C251.312668,211.391159 266.646088,204.679276 283.014984,201.080017 
	C287.505981,200.092514 292.235748,199.849442 296.856567,199.844604 
	C376.485352,199.761200 456.114288,199.766190 535.743164,199.760086 
	C543.603577,199.759491 545.136963,202.198074 541.394592,209.123108 
	C533.401245,223.914200 525.878845,239.009583 516.992676,253.249680 
	C511.684723,261.755768 504.592285,269.306732 497.489136,276.482391 
	C492.117340,281.909088 484.793243,284.206665 476.962280,284.256958 
	C457.474640,284.382172 437.987274,284.559479 417.999786,284.715851 
z"/>
</svg>