<svg version="1.1" id="Layer_1" xmlns="http://www.w3.org/2000/svg" xmlns:xlink="http://www.w3.org/1999/xlink" x="0px" y="0px"
	 width="100%" viewBox="0 0 750 750" enable-background="new 0 0 750 750" xml:space="preserve">
<path fill="#021027" opacity="1.000000" stroke="none" 
	d="
M446.000000,751.000000 
	C297.333344,751.000000 149.166672,751.000000 1.000000,751.000000 
	C1.000000,501.000000 1.000000,251.000000 1.000000,1.000000 
	C251.000000,1.000000 501.000000,1.000000 751.000000,1.000000 
	C751.000000,251.000000 751.000000,501.000000 751.000000,751.000000 
	C649.500000,751.000000 548.000000,751.000000 446.000000,751.000000 
M388.499817,707.521301 
	C466.158966,707.521057 543.818420,707.623169 621.476868,707.382690 
	C630.544800,707.354614 639.908142,706.549438 648.618347,704.195007 
	C682.650574,694.996033 707.037598,665.089844 707.143188,629.349365 
	C707.641968,460.535767 707.376404,291.719849 707.346252,122.904755 
	C707.345703,119.749916 707.131958,116.554268 706.608582,113.446556 
	C699.709473,72.479584 666.828674,44.604183 625.226624,44.595108 
	C459.076324,44.558872 292.926025,44.557987 126.775787,44.663651 
	C120.329659,44.667751 113.729187,45.224899 107.464066,46.668026 
	C69.889183,55.323147 44.640152,87.393654 44.599033,126.401955 
	C44.517345,203.894241 44.573235,281.386658 44.573090,358.879028 
	C44.572922,447.536957 44.616714,536.194946 44.546574,624.852844 
	C44.526695,649.980225 53.605507,671.015869 72.424545,687.609253 
	C88.680542,701.942627 108.000877,707.630188 129.525345,707.588562 
	C215.516556,707.422363 301.508270,707.521301 388.499817,707.521301 
z"/>
<path fill="#005DE0" opacity="1.000000" stroke="none" 
	d="
M387.999817,707.521729 
	C301.508270,707.521301 215.516556,707.422363 129.525345,707.588562 
	C108.000877,707.630188 88.680542,701.942627 72.424545,687.609253 
	C53.605507,671.015869 44.526695,649.980225 44.546574,624.852844 
	C44.616714,536.194946 44.572922,447.536957 44.573090,358.879028 
	C44.573235,281.386658 44.517345,203.894241 44.599033,126.401955 
	C44.640152,87.393654 69.889183,55.323147 107.464066,46.668026 
	C113.729187,45.224899 120.329659,44.667751 126.775787,44.663651 
	C292.926025,44.557987 459.076324,44.558872 625.226624,44.595108 
	C666.828674,44.604183 699.709473,72.479584 706.608582,113.446556 
	C707.131958,116.554268 707.345703,119.749916 707.346252,122.904755 
	C707.376404,291.719849 707.641968,460.535767 707.143188,629.349365 
	C707.037598,665.089844 682.650574,694.996033 648.618347,704.195007 
	C639.908142,706.549438 630.544800,707.354614 621.476868,707.382690 
	C543.818420,707.623169 466.158966,707.521057 387.999817,707.521729 
M314.493927,532.313110 
	C318.481567,532.146851 322.540222,532.401733 326.444946,531.743469 
	C346.462646,528.369141 360.365784,516.663086 369.941986,499.227051 
	C400.699463,443.224823 431.466797,387.227997 462.228851,331.228302 
	C463.956543,328.083160 465.671387,324.930939 467.776703,321.078430 
	C465.335663,320.884521 463.914154,320.669220 462.493378,320.673676 
	C423.335541,320.796539 384.177643,320.909027 345.020142,321.108704 
	C336.371613,321.152802 327.523804,320.420868 319.117767,321.959106 
	C299.923889,325.471405 285.390991,336.294067 275.698944,353.345367 
	C270.191589,363.034576 264.773712,372.775055 259.371948,382.523712 
	C256.991638,386.819489 254.751663,391.192993 251.878220,396.604156 
	C280.585144,396.604156 308.159119,396.604156 337.123199,396.604156 
	C311.793335,442.321777 287.126129,486.843353 261.929321,532.320801 
	C279.948059,532.320801 296.722626,532.320801 314.493927,532.313110 
M384.500183,219.724670 
	C357.169495,219.733231 329.834900,219.462875 302.509552,219.849472 
	C284.620941,220.102585 269.010925,227.163773 258.011566,241.100525 
	C249.743118,251.577057 243.784821,263.892792 236.954865,275.482178 
	C233.455841,281.419434 230.300522,287.559265 226.736053,294.071228 
	C228.589676,294.243835 229.720627,294.440887 230.851685,294.441406 
	C309.172485,294.477356 387.493286,294.504395 465.814087,294.507324 
	C472.760406,294.507568 479.280304,292.343262 484.025726,287.489075 
	C490.392517,280.976379 496.721436,274.124817 501.523071,266.452698 
	C509.277283,254.062927 515.807190,240.904114 522.786072,228.033142 
	C526.357666,221.446045 525.322693,219.726730 517.987244,219.726181 
	C473.824921,219.722839 429.662567,219.724609 384.500183,219.724670 
z"/>
<path fill="#FEFEFF" opacity="1.000000" stroke="none" 
	d="
M313.995575,532.316956 
	C296.722626,532.320801 279.948059,532.320801 261.929321,532.320801 
	C287.126129,486.843353 311.793335,442.321777 337.123199,396.604156 
	C308.159119,396.604156 280.585144,396.604156 251.878220,396.604156 
	C254.751663,391.192993 256.991638,386.819489 259.371948,382.523712 
	C264.773712,372.775055 270.191589,363.034576 275.698944,353.345367 
	C285.390991,336.294067 299.923889,325.471405 319.117767,321.959106 
	C327.523804,320.420868 336.371613,321.152802 345.020142,321.108704 
	C384.177643,320.909027 423.335541,320.796539 462.493378,320.673676 
	C463.914154,320.669220 465.335663,320.884521 467.776703,321.078430 
	C465.671387,324.930939 463.956543,328.083160 462.228851,331.228302 
	C431.466797,387.227997 400.699463,443.224823 369.941986,499.227051 
	C360.365784,516.663086 346.462646,528.369141 326.444946,531.743469 
	C322.540222,532.401733 318.481567,532.146851 313.995575,532.316956 
z"/>
<path fill="#FEFEFF" opacity="1.000000" stroke="none" 
	d="
M385.000214,219.724670 
	C429.662567,219.724609 473.824921,219.722839 517.987244,219.726181 
	C525.322693,219.726730 526.357666,221.446045 522.786072,228.033142 
	C515.807190,240.904114 509.277283,254.062927 501.523071,266.452698 
	C496.721436,274.124817 490.392517,280.976379 484.025726,287.489075 
	C479.280304,292.343262 472.760406,294.507568 465.814087,294.507324 
	C387.493286,294.504395 309.172485,294.477356 230.851685,294.441406 
	C229.720627,294.440887 228.589676,294.243835 226.736053,294.071228 
	C230.300522,287.559265 233.455841,281.419434 236.954865,275.482178 
	C243.784821,263.892792 249.743118,251.577057 258.011566,241.100525 
	C269.010925,227.163773 284.620941,220.102585 302.509552,219.849472 
	C329.834900,219.462875 357.169495,219.733231 385.000214,219.724670 
z"/>
</svg>