<svg version="1.1" id="Layer_1" xmlns="http://www.w3.org/2000/svg" xmlns:xlink="http://www.w3.org/1999/xlink" x="0px" y="0px"
	 width="100%" viewBox="0 0 192 192" enable-background="new 0 0 192 192" xml:space="preserve">
<path fill="#021127" opacity="1.000000" stroke="none" 
	d="
M127.000000,193.000000 
	C84.693916,193.000000 42.887829,193.000000 1.040873,193.000000 
	C1.040873,129.068954 1.040873,65.137886 1.040873,1.103403 
	C64.889229,1.103403 128.778687,1.103403 192.834076,1.103403 
	C192.834076,64.999649 192.834076,128.999786 192.834076,193.000000 
	C171.138168,193.000000 149.319092,193.000000 127.000000,193.000000 
M86.499878,159.417297 
	C103.663635,159.412964 120.828453,159.524582 137.990814,159.367355 
	C151.567551,159.242996 159.295258,151.334656 159.323074,137.746063 
	C159.378677,110.584137 159.379486,83.421951 159.322983,56.260036 
	C159.294250,42.448444 151.436203,34.709866 137.495117,34.689972 
	C110.499779,34.651447 83.504311,34.651546 56.508968,34.689922 
	C42.564724,34.709743 34.705944,42.445885 34.677113,56.256386 
	C34.620411,83.418297 34.621437,110.580490 34.676846,137.742416 
	C34.704571,151.331863 42.431431,159.177216 56.005337,159.376907 
	C65.834923,159.521500 75.668221,159.413315 86.499878,159.417297 
z"/>
<path fill="#015DE0" opacity="1.000000" stroke="none" 
	d="
M85.999870,159.417572 
	C75.668221,159.413315 65.834923,159.521500 56.005337,159.376907 
	C42.431431,159.177216 34.704571,151.331863 34.676846,137.742416 
	C34.621437,110.580490 34.620411,83.418297 34.677113,56.256386 
	C34.705944,42.445885 42.564724,34.709743 56.508968,34.689922 
	C83.504311,34.651546 110.499779,34.651447 137.495117,34.689972 
	C151.436203,34.709866 159.294250,42.448444 159.322983,56.260036 
	C159.379486,83.421951 159.378677,110.584137 159.323074,137.746063 
	C159.295258,151.334656 151.567551,159.242996 137.990814,159.367355 
	C120.828453,159.524582 103.663635,159.412964 85.999870,159.417572 
M79.927460,117.352882 
	C77.532852,121.637802 75.138245,125.922722 72.314377,130.975769 
	C76.963211,130.975769 80.878418,131.641769 84.426804,130.786270 
	C87.894821,129.950134 92.386490,128.403961 94.008926,125.711342 
	C101.762604,112.843254 108.693558,99.479408 116.176056,85.818932 
	C107.440346,85.818932 99.472214,85.810181 91.504120,85.820976 
	C79.321144,85.837486 74.427376,89.667259 71.111244,102.156105 
	C76.623245,102.156105 82.017418,102.156105 88.137123,102.156105 
	C85.234512,107.457832 82.714622,112.060516 79.927460,117.352882 
M87.573753,64.022133 
	C75.392609,63.382202 71.408859,65.285278 65.599220,80.179237 
	C80.643608,80.179237 95.609413,80.179504 110.575211,80.179138 
	C119.674202,80.178909 126.471352,73.771378 127.478500,64.022133 
	C114.487274,64.022133 101.520157,64.022133 87.573753,64.022133 
z"/>
<path fill="#FCFDFF" opacity="1.000000" stroke="none" 
	d="
M80.061096,117.008041 
	C82.714622,112.060516 85.234512,107.457832 88.137123,102.156105 
	C82.017418,102.156105 76.623245,102.156105 71.111244,102.156105 
	C74.427376,89.667259 79.321144,85.837486 91.504120,85.820976 
	C99.472214,85.810181 107.440346,85.818932 116.176056,85.818932 
	C108.693558,99.479408 101.762604,112.843254 94.008926,125.711342 
	C92.386490,128.403961 87.894821,129.950134 84.426804,130.786270 
	C80.878418,131.641769 76.963211,130.975769 72.314377,130.975769 
	C75.138245,125.922722 77.532852,121.637802 80.061096,117.008041 
z"/>
<path fill="#FDFEFF" opacity="1.000000" stroke="none" 
	d="
M88.063400,64.022133 
	C101.520157,64.022133 114.487274,64.022133 127.478500,64.022133 
	C126.471352,73.771378 119.674202,80.178909 110.575211,80.179138 
	C95.609413,80.179504 80.643608,80.179237 65.599220,80.179237 
	C71.408859,65.285278 75.392609,63.382202 88.063400,64.022133 
z"/>
</svg>