<svg version="1.1" id="Layer_1" xmlns="http://www.w3.org/2000/svg" xmlns:xlink="http://www.w3.org/1999/xlink" x="0px" y="0px"
	 width="100%" viewBox="0 0 750 750" enable-background="new 0 0 750 750" xml:space="preserve">
<path fill="#005DE0" opacity="1.000000" stroke="none" 
	d="
M492.000000,751.000000 
	C328.000000,751.000000 164.500000,751.000000 1.000000,751.000000 
	C1.000000,501.000000 1.000000,251.000000 1.000000,1.000000 
	C251.000000,1.000000 501.000000,1.000000 751.000000,1.000000 
	C751.000000,251.000000 751.000000,501.000000 751.000000,751.000000 
	C664.833313,751.000000 578.666687,751.000000 492.000000,751.000000 
M364.149536,555.640808 
	C372.427490,541.018250 380.857147,526.479187 388.957550,511.758942 
	C426.904175,442.801575 464.760925,373.794739 502.647003,304.804077 
	C505.899933,298.880402 505.456451,298.119354 498.579651,298.149231 
	C434.920013,298.425873 371.260406,298.714264 307.600983,299.030640 
	C305.451233,299.041321 303.258453,299.168396 301.161041,299.603912 
	C273.271667,305.395660 252.350693,320.590668 238.670410,345.729218 
	C229.364120,362.830261 219.764923,379.771698 210.336227,396.806427 
	C209.338409,398.609192 208.606766,400.559326 207.182495,403.693451 
	C246.566238,403.693451 284.780945,403.693451 324.629211,403.693451 
	C289.683594,466.758850 255.538345,528.379822 220.731598,591.194641 
	C240.393921,591.194641 258.208923,591.262634 276.023071,591.169250 
	C286.849792,591.112549 297.784912,591.716370 308.478760,590.426636 
	C331.962463,587.594360 349.907959,575.038940 364.149536,555.640808 
M546.598267,232.093903 
	C548.294189,229.831451 550.284790,227.731827 551.639160,225.280640 
	C561.939575,206.638184 572.171997,187.957458 582.301514,169.221634 
	C586.140076,162.121796 584.221313,158.968124 576.400452,158.968887 
	C477.244446,158.978561 378.088013,158.840042 278.932648,159.095917 
	C250.006744,159.170563 226.120178,171.308167 210.232086,195.261185 
	C196.478027,215.996948 185.426315,238.525497 173.212067,260.279510 
	C173.015671,260.629303 173.226822,261.207947 173.269028,262.157440 
	C178.454117,262.389374 183.589981,262.817017 188.726059,262.819641 
	C292.381042,262.872833 396.036041,262.888580 499.691040,262.877655 
	C513.460144,262.876190 524.959778,257.640137 534.005188,247.248734 
	C538.160278,242.475342 542.090332,237.506073 546.598267,232.093903 
z"/>
<path fill="#000001" opacity="1.000000" stroke="none" 
	d="
M363.957397,555.942322 
	C349.907959,575.038940 331.962463,587.594360 308.478760,590.426636 
	C297.784912,591.716370 286.849792,591.112549 276.023071,591.169250 
	C258.208923,591.262634 240.393921,591.194641 220.731598,591.194641 
	C255.538345,528.379822 289.683594,466.758850 324.629211,403.693451 
	C284.780945,403.693451 246.566238,403.693451 207.182495,403.693451 
	C208.606766,400.559326 209.338409,398.609192 210.336227,396.806427 
	C219.764923,379.771698 229.364120,362.830261 238.670410,345.729218 
	C252.350693,320.590668 273.271667,305.395660 301.161041,299.603912 
	C303.258453,299.168396 305.451233,299.041321 307.600983,299.030640 
	C371.260406,298.714264 434.920013,298.425873 498.579651,298.149231 
	C505.456451,298.119354 505.899933,298.880402 502.647003,304.804077 
	C464.760925,373.794739 426.904175,442.801575 388.957550,511.758942 
	C380.857147,526.479187 372.427490,541.018250 363.957397,555.942322 
z"/>
<path fill="#000000" opacity="1.000000" stroke="none" 
	d="
M546.360352,232.359772 
	C542.090332,237.506073 538.160278,242.475342 534.005188,247.248734 
	C524.959778,257.640137 513.460144,262.876190 499.691040,262.877655 
	C396.036041,262.888580 292.381042,262.872833 188.726059,262.819641 
	C183.589981,262.817017 178.454117,262.389374 173.269028,262.157440 
	C173.226822,261.207947 173.015671,260.629303 173.212067,260.279510 
	C185.426315,238.525497 196.478027,215.996948 210.232086,195.261185 
	C226.120178,171.308167 250.006744,159.170563 278.932648,159.095917 
	C378.088013,158.840042 477.244446,158.978561 576.400452,158.968887 
	C584.221313,158.968124 586.140076,162.121796 582.301514,169.221634 
	C572.171997,187.957458 561.939575,206.638184 551.639160,225.280640 
	C550.284790,227.731827 548.294189,229.831451 546.360352,232.359772 
z"/>
</svg>